<?xml version="1.0" encoding="utf-8"?>
<!-- Svg Vector Icons : http://www.onlinewebfonts.com/icon -->
<!DOCTYPE svg PUBLIC "-//W3C//DTD SVG 1.1//EN" "http://www.w3.org/Graphics/SVG/1.1/DTD/svg11.dtd">
<svg version="1.1" xmlns="http://www.w3.org/2000/svg" xmlns:xlink="http://www.w3.org/1999/xlink" x="0px" y="0px" viewBox="0 0 1000 1000" enable-background="new 0 0 1000 1000" xml:space="preserve">
<metadata> Svg Vector Icons : http://www.onlinewebfonts.com/icon </metadata>
<g><g transform="translate(0.000000,511.000000) scale(0.100000,-0.100000)"><path d="M338.9,1702.8C82.4,1563,21.1,1260.5,210.6,1061.4c53.6-55.5,647.1-388.6,2358.6-1322.9L4857-1511.6h143.6h143.6L7431.9-261.4c1711.5,934.3,2305,1267.4,2358.6,1322.9c187.6,197.2,126.3,509.2-124.4,637.5c-59.4,30.6-103.4,36.4-193.4,30.6c-114.9-7.7-183.8-42.1-2287.8-1190.8C5929.1-146.6,5002.5-640.5,4983.3-634.8c-17.2,3.8-1001.3,536-2184.4,1183.1L645.2,1721.9l-124.4,5.8C432.7,1731.5,379.1,1725.8,338.9,1702.8z"/></g></g>
</svg>