<?xml version="1.0" encoding="utf-8"?>
<!-- Svg Vector Icons : http://www.onlinewebfonts.com/icon -->
<!DOCTYPE svg PUBLIC "-//W3C//DTD SVG 1.1//EN" "http://www.w3.org/Graphics/SVG/1.1/DTD/svg11.dtd">
<svg version="1.1" xmlns="http://www.w3.org/2000/svg" xmlns:xlink="http://www.w3.org/1999/xlink" x="0px" y="0px" viewBox="0 0 1000 1000" enable-background="new 0 0 1000 1000" xml:space="preserve">
<metadata> Svg Vector Icons : http://www.onlinewebfonts.com/icon </metadata>
<g><g transform="translate(0.000000,512.000000) scale(0.100000,-0.100000)"><path d="M6056,4986.3c-42.1-19.2-99.6-59.4-128.3-90c-26.8-30.6-612.9-1085.9-1302.4-2344.3L3374.6,263.2V119.6V-24.1l1250.7-2288.7c689.5-1258.3,1275.6-2313.6,1302.4-2344.3c203-218.3,580.3-132.1,674.2,151.3c59.4,182,105.4,88.1-1176,2438.2C4690.4-719.3,4246,113.8,4251.8,136.8c3.8,19.2,536.3,1003.6,1183.6,2187.2C6707.2,4656.8,6661.2,4563,6601.8,4745C6529,4965.2,6264.7,5082,6056,4986.3z"/></g></g>
</svg>