<?xml version="1.0" encoding="utf-8"?>
<!-- Svg Vector Icons : http://www.onlinewebfonts.com/icon -->
<!DOCTYPE svg PUBLIC "-//W3C//DTD SVG 1.1//EN" "http://www.w3.org/Graphics/SVG/1.1/DTD/svg11.dtd">
<svg version="1.1" xmlns="http://www.w3.org/2000/svg" xmlns:xlink="http://www.w3.org/1999/xlink" x="0px" y="0px" viewBox="0 0 1000 1000" enable-background="new 0 0 1000 1000" xml:space="preserve">
<metadata> Svg Vector Icons : http://www.onlinewebfonts.com/icon </metadata>
<g><g transform="translate(0.000000,511.000000) scale(0.100000,-0.100000)"><path d="M4868.5,1729.6C4734.4,1672.1,266.3-781.3,224.2-819.6c-159-149.4-166.6-406-15.3-565c90-95.8,187.7-134.1,317.9-124.5c113,7.7,187.7,46,2269.5,1181.7C3979.8,320,4964.3,852.4,4983.4,856.2c21.1,5.7,863.7-442.4,2204.4-1174c2349.9-1281.3,2256.1-1235.3,2438-1175.9c283.5,93.8,369.6,471.1,151.3,674.1c-30.7,26.8-1085.9,612.9-2344.2,1300.4L5144.3,1729.6l-124.5,5.8C4950.8,1739.1,4883.8,1737.2,4868.5,1729.6z"/></g></g>
</svg>