<?xml version="1.0" encoding="utf-8"?>
<!-- Svg Vector Icons : http://www.onlinewebfonts.com/icon -->
<!DOCTYPE svg PUBLIC "-//W3C//DTD SVG 1.1//EN" "http://www.w3.org/Graphics/SVG/1.1/DTD/svg11.dtd">
<svg version="1.1" xmlns="http://www.w3.org/2000/svg" xmlns:xlink="http://www.w3.org/1999/xlink" x="0px" y="0px" viewBox="0 0 1000 1000" enable-background="new 0 0 1000 1000" xml:space="preserve">
<metadata> Svg Vector Icons : http://www.onlinewebfonts.com/icon </metadata>
<g><g transform="translate(0.000000,512.000000) scale(0.100000,-0.100000)"><path d="M3625.3,4990.6c-88.1-38.3-166.6-114.9-214.4-206.8c-30.6-57.4-36.4-101.5-30.6-191.5c7.7-113,47.9-189.5,1190.9-2286C5275.7,1014,5750.6,123.7,5746.7,104.5c-5.7-19.1-538-1003.3-1185.1-2186.5C3426.2-4163.1,3387.9-4239.7,3380.3-4352.7c-5.7-90,0-134,30.6-193.4c128.3-250.8,440.4-312.1,637.6-124.5c55.5,53.6,388.7,647.1,1323,2358.8l1250.2,2288v143.6v143.6l-1250.2,2288c-934.3,1711.7-1267.5,2305.2-1323,2358.8C3935.5,5017.4,3763.2,5050,3625.3,4990.6z" fill="#FFF"/></g></g>
</svg>
