<?xml version="1.0" standalone="no"?><!DOCTYPE svg PUBLIC "-//W3C//DTD SVG 1.1//EN" "http://www.w3.org/Graphics/SVG/1.1/DTD/svg11.dtd"><svg width="200" height="200" viewBox="0 0 200 200" version="1.1" xmlns="http://www.w3.org/2000/svg" xmlns:xlink="http://www.w3.org/1999/xlink"><defs><style type="text/css"><![CDATA[
@font-face { font-family: ifont; src: url("//at.alicdn.com/t/font_1442373896_4754455.eot?#iefix") format("embedded-opentype"), url("//at.alicdn.com/t/font_1442373896_4754455.woff") format("woff"), url("//at.alicdn.com/t/font_1442373896_4754455.ttf") format("truetype"), url("//at.alicdn.com/t/font_1442373896_4754455.svg#ifont") format("svg"); }

]]></style></defs><g class="transform-group"><g transform="scale(0.1953125, 0.1953125)"><path d="M716 332l167.428-167.43-61.144-61.144-167.428 167.428zM971.428 164.57q0 15.43-10.286 25.714l-734.856 734.856q-10.286 10.286-25.714 10.286t-25.714-10.286l-113.144-113.144q-10.286-10.286-10.286-25.714t10.286-25.714l734.856-734.856q10.286-10.286 25.714-10.286t25.714 10.286l113.144 113.144q10.286 10.286 10.286 25.714zM199.43 56l56 17.144-56 17.144-17.144 56-17.144-56-56-17.144 56-17.144 17.144-56zM399.428 148.57l112 34.286-112 34.286-34.286 112-34.286-112-112-34.286 112-34.286 34.286-112zM930.856 421.714l56 17.142-56 17.144-17.144 56-17.144-56-56-17.144 56-17.144 17.144-56zM565.144 56l56 17.144-56 17.144-17.144 56-17.144-56-56-17.144 56-17.144 17.144-56z" fill="#272636"></path></g></g></svg>