<?xml version="1.0" standalone="no"?><!DOCTYPE svg PUBLIC "-//W3C//DTD SVG 1.1//EN" "http://www.w3.org/Graphics/SVG/1.1/DTD/svg11.dtd"><svg width="200" height="200" viewBox="0 0 200 200" version="1.1" xmlns="http://www.w3.org/2000/svg" xmlns:xlink="http://www.w3.org/1999/xlink"><defs><style type="text/css"><![CDATA[
@font-face { font-family: ifont; src: url("//at.alicdn.com/t/font_1442373896_4754455.eot?#iefix") format("embedded-opentype"), url("//at.alicdn.com/t/font_1442373896_4754455.woff") format("woff"), url("//at.alicdn.com/t/font_1442373896_4754455.ttf") format("truetype"), url("//at.alicdn.com/t/font_1442373896_4754455.svg#ifont") format("svg"); }

]]></style></defs><g class="transform-group"><g transform="scale(0.1953125, 0.1953125)"><path d="M140.505569 815.367309c-11.983939 0-21.770839-9.671267-21.770839-21.61632 0-11.739369 9.785877-21.189601 21.770839-21.189601l38.061874 0L178.567443 382.201795l-75.953879 0c-19.560498 0-36.006052-16.562211-36.006052-36.121685 0-15.189957 9.785877-28.080545 23.024389-33.601282L496.658082 109.244077c10.019191-5.067412 22.00313-4.615111 31.66007 0l410.154427 204.837248c17.362436 8.507768 24.511253 30.356378 15.552208 48.326659-6.102998 12.437264-18.902512 19.560498-31.881105 19.560498l0 0.233314-75.643817 0 0 390.359592 37.764092 0c12.30628 0 21.75856 9.450233 21.75856 21.189601 0 11.945053-9.451256 21.61632-21.75856 21.61632L140.505569 815.367309 140.505569 815.367309zM250.281765 382.201795 250.281765 382.201795l0 390.359592 126.930901 0L377.212666 382.201795 250.281765 382.201795 250.281765 382.201795zM449.144952 382.201795 449.144952 382.201795l0 390.359592 126.479623 0L575.624575 382.201795 449.144952 382.201795 449.144952 382.201795zM647.544581 382.201795 647.544581 382.201795l0 390.359592 126.930901 0L774.475482 382.201795 647.544581 382.201795 647.544581 382.201795zM770.221598 310.150806 770.221598 310.150806 512.325923 181.501774 254.664585 310.150806 770.221598 310.150806 770.221598 310.150806zM102.612541 908.36026 102.612541 908.36026c-19.560498 0-36.006052-15.875572-36.006052-35.913954 0-19.781532 16.445554-35.68371 36.006052-35.68371l819.530119 0c19.677155 0 36.225039 15.902178 36.225039 35.68371 0 20.038382-16.547885 35.913954-36.225039 35.913954L102.612541 908.36026 102.612541 908.36026z" fill="#272636"></path></g></g></svg>