<?xml version="1.0" encoding="utf-8"?>
<!-- Generator: Adobe Illustrator 21.0.2, SVG Export Plug-In . SVG Version: 6.00 Build 0)  -->
<svg version="1.1" id="圖層_1" xmlns="http://www.w3.org/2000/svg" xmlns:xlink="http://www.w3.org/1999/xlink" x="0px" y="0px"
	 viewBox="0 0 89 79" style="enable-background:new 0 0 89 79;" xml:space="preserve">
<style type="text/css">
	.st0{fill-rule:evenodd;clip-rule:evenodd;}
</style>
<g>
	<path class="st0" d="M60.7,63.5c0,1.4-1.1,2.7-2.5,2.7H18.6c-1.4,0-2.6-1.2-2.6-2.7V24.1c0-1.4,1.2-2.6,2.6-2.6h39.6
		c1.4,0,2.5,1.1,2.5,2.6V63.5L60.7,63.5z"/>
	<path class="st0" d="M64.1,15.4H21.6c-1.5,0-2.7,1.3-2.7,2.8v0.5h40.7c2.1,0,3.9,1.8,3.9,3.9v40.7h0.6c1.5,0,2.7-1.3,2.7-2.8V18.2
		C66.8,16.6,65.6,15.4,64.1,15.4L64.1,15.4z"/>
	<path class="st0" d="M70.5,9H28c-1.5,0-2.7,1.3-2.7,2.8v0.5H66c2.1,0,3.9,1.8,3.9,3.9v40.7h0.6c1.5,0,2.7-1.3,2.7-2.8V11.8
		C73.2,10.3,72,9,70.5,9L70.5,9z"/>
</g>
</svg>
