<?xml version="1.0" standalone="no"?><!DOCTYPE svg PUBLIC "-//W3C//DTD SVG 1.1//EN" "http://www.w3.org/Graphics/SVG/1.1/DTD/svg11.dtd"><svg width="200" height="200" viewBox="0 0 200 200" version="1.1" xmlns="http://www.w3.org/2000/svg" xmlns:xlink="http://www.w3.org/1999/xlink"><defs><style type="text/css"><![CDATA[
@font-face { font-family: ifont; src: url("//at.alicdn.com/t/font_1442373896_4754455.eot?#iefix") format("embedded-opentype"), url("//at.alicdn.com/t/font_1442373896_4754455.woff") format("woff"), url("//at.alicdn.com/t/font_1442373896_4754455.ttf") format("truetype"), url("//at.alicdn.com/t/font_1442373896_4754455.svg#ifont") format("svg"); }

]]></style></defs><g class="transform-group"><g transform="scale(0.1953125, 0.1953125)"><path d="M527.243169 47.336098c-247.258407 0-447.701578 200.442148-447.701578 447.700555s200.443172 447.701578 447.701578 447.701578 447.701578-200.443172 447.701578-447.701578S774.501576 47.336098 527.243169 47.336098zM723.023134 429.240111 505.312694 646.950552c-10.038634 10.039657-23.204491 15.050788-36.340673 15.069207-13.138228-0.001023-26.273387-5.010107-36.286438-15.023158L323.777151 538.088168c-20.043499-20.043499-19.999496-52.582589 0.00614-72.588225 20.046568-20.046568 52.563146-20.032242 72.588225-0.00614l72.602551 72.602551 181.451632-181.452655c20.068058-20.068058 52.628638-20.044522 72.634274-0.038886C743.108588 376.652406 743.124961 409.137261 723.023134 429.240111z" fill="#272636"></path></g></g></svg>