<?xml version="1.0" encoding="utf-8"?>
<!-- Svg Vector Icons : http://www.onlinewebfonts.com/icon -->
<!DOCTYPE svg PUBLIC "-//W3C//DTD SVG 1.1//EN" "http://www.w3.org/Graphics/SVG/1.1/DTD/svg11.dtd">
<svg version="1.1" xmlns="http://www.w3.org/2000/svg" xmlns:xlink="http://www.w3.org/1999/xlink" x="0px" y="0px" viewBox="0 0 1000 1000" enable-background="new 0 0 1000 1000" xml:space="preserve">
<metadata> Svg Vector Icons : http://www.onlinewebfonts.com/icon </metadata>
<g><g transform="translate(0.000000,512.000000) scale(0.100000,-0.100000)"><path d="M1083.6,4993.2c-181.9-40.2-319.7-99.6-463.3-199.1c-220.2-155.1-371.4-359.9-461.4-622.2l-51.7-155.1l-5.7-3829c-3.8-3436.5-1.9-3844.3,24.9-3980.3c78.5-382.9,317.8-693,670.1-863.4c273.8-132.1,21.1-124.4,4202.3-124.4c4181.3,0,3928.6-7.7,4202.3,124.4c350.4,168.5,589.7,476.7,668.2,857.7c26.8,130.2,30.6,551.4,30.6,3919c0,4181.3,7.7,3928.6-124.4,4202.3c-168.5,350.4-476.7,589.7-857.7,668.2c-130.2,26.8-549.5,30.6-3932.4,28.7C1920.3,5020,1177.4,5014.3,1083.6,4993.2z M8502.3,3614.8l430.8-430.8l-675.8-675.8l-673.9-673.9l549.5-551.4l551.4-549.5H7146.9H5611.4v1535.4v1537.3l551.4-551.4l549.5-549.5l670.1,670.1c367.6,369.5,673.9,670.1,679.6,670.1S8264.9,3852.2,8502.3,3614.8z M4386.2-2027.3v-1537.3l-549.5,551.4l-551.4,549.5l-673.9-673.9l-675.8-675.8L1501-3377l-436.5,434.6l675.8,675.8l673.9,673.9l-549.5,551.4l-551.4,549.5h1537.3h1535.4V-2027.3z"/></g></g>
</svg>