<?xml version="1.0" standalone="no"?><!DOCTYPE svg PUBLIC "-//W3C//DTD SVG 1.1//EN" "http://www.w3.org/Graphics/SVG/1.1/DTD/svg11.dtd"><svg width="200" height="200" viewBox="0 0 200 200" version="1.1" xmlns="http://www.w3.org/2000/svg" xmlns:xlink="http://www.w3.org/1999/xlink"><defs><style type="text/css"><![CDATA[
@font-face { font-family: ifont; src: url("//at.alicdn.com/t/font_1442373896_4754455.eot?#iefix") format("embedded-opentype"), url("//at.alicdn.com/t/font_1442373896_4754455.woff") format("woff"), url("//at.alicdn.com/t/font_1442373896_4754455.ttf") format("truetype"), url("//at.alicdn.com/t/font_1442373896_4754455.svg#ifont") format("svg"); }

]]></style></defs><g class="transform-group"><g transform="scale(0.1953125, 0.1953125)"><path d="M626.70848 595.53792c-5.16096-1.67936-37.74464-16.36352-17.38752-78.27456l-0.28672 0c53.06368-54.64064 93.61408-142.62272 93.61408-229.21216 0-133.16096-88.55552-202.93632-191.44704-202.93632-102.95296 0-190.99648 69.77536-190.99648 202.93632 0 86.9376 40.32512 175.26784 93.71648 229.7856 20.80768 54.5792-16.40448 74.8544-24.18688 77.70112-107.76576 38.97344-234.1888 110.01856-234.1888 180.14208 0 18.92352 0 7.4752 0 26.27584 0 95.5392 185.2416 117.26848 356.67968 117.26848 171.68384 0 354.59072-21.72928 354.59072-117.26848 0-18.80064 0-7.35232 0-26.27584C866.816 703.44704 739.75808 632.97536 626.70848 595.53792z" fill="#272636"></path></g></g></svg>