<?xml version="1.0" standalone="no"?><!DOCTYPE svg PUBLIC "-//W3C//DTD SVG 1.1//EN" "http://www.w3.org/Graphics/SVG/1.1/DTD/svg11.dtd"><svg width="200" height="200" viewBox="0 0 200 200" version="1.1" xmlns="http://www.w3.org/2000/svg" xmlns:xlink="http://www.w3.org/1999/xlink"><defs><style type="text/css"><![CDATA[
@font-face { font-family: ifont; src: url("//at.alicdn.com/t/font_1442373896_4754455.eot?#iefix") format("embedded-opentype"), url("//at.alicdn.com/t/font_1442373896_4754455.woff") format("woff"), url("//at.alicdn.com/t/font_1442373896_4754455.ttf") format("truetype"), url("//at.alicdn.com/t/font_1442373896_4754455.svg#ifont") format("svg"); }

]]></style></defs><g class="transform-group"><g transform="scale(0.1953125, 0.1953125)"><path d="M883.764584 116.249631c0 0-179.028443-52.79339-361.536127-52.79339-189.743482 0-383.287523 52.79339-383.287523 52.79339s-9.492188 570.826803 67.743894 648.055722c77.227895 77.227895 217.58662 196.630333 304.178791 196.630333 86.583984 0 232.174873-123.935684 305.005622-196.759269C888.691803 691.352831 883.764584 116.249631 883.764584 116.249631zM715.94953 488.403582 563.237453 488.403582l-12.828167 24.77322 0 49.118698 165.540244 0 0 55.18895L550.409287 617.48445l0 110.922299-74.430176 0L475.97911 617.48445 310.204529 617.48445l0-55.18895 165.774581 0 0-49.118698-11.92868-24.77322L310.204529 488.403582l0-55.196113L437.477214 433.207469l-109.331058-183.714162 77.259618 0 109.789499 183.714162 107.23328-183.714162 77.227895 0-110.994953 183.714162L715.94953 433.207469 715.94953 488.403582zM550.409287 728.407772" fill="#272636"></path></g></g></svg>