<?xml version="1.0" encoding="utf-8"?>
<!-- Svg Vector Icons : http://www.onlinewebfonts.com/icon -->
<!DOCTYPE svg PUBLIC "-//W3C//DTD SVG 1.1//EN" "http://www.w3.org/Graphics/SVG/1.1/DTD/svg11.dtd">
<svg version="1.1" xmlns="http://www.w3.org/2000/svg" xmlns:xlink="http://www.w3.org/1999/xlink" x="0px" y="0px" viewBox="0 0 1000 1000" enable-background="new 0 0 1000 1000" xml:space="preserve">
<metadata> Svg Vector Icons : http://www.onlinewebfonts.com/icon </metadata>
<g><g transform="translate(0.000000,511.000000) scale(0.100000,-0.100000)"><path d="M557.7,3142.5c-184-38.3-354.5-182.1-421.6-358.4c-38.3-105.4-38.3-115-34.5-2705.9l5.7-2600.5l51.7-97.7c28.7-53.7,92-134.2,139.9-176.3c172.5-151.4-253-138,4733.4-134.2l4465.1,5.7l105.4,59.4c122.6,69,233.8,205.1,272.1,331.5c19.2,70.9,24.9,569.2,24.9,2656.1c0,2485.5-1.9,2571.8-36.4,2663.7c-47.9,124.6-180.1,262.5-304.7,318.1l-99.6,46l-4417.2,1.9C2612.1,3154,594.1,3150.1,557.7,3142.5z M6782.1,1806.8c61.3-46,138-187.8,138-258.7c0-90.1-80.5-212.7-172.5-260.6c-103.5-55.6-161-55.6-268.3,0c-113.1,57.5-157.1,124.6-168.6,247.2c-5.7,84.3,0,113.1,38.3,168.6c76.7,113.1,161,157.1,279.8,149.5C6688.2,1847,6751.4,1827.9,6782.1,1806.8z M2575.6,1701.4c92-11.5,235.7-40.3,316.2-63.2l147.6-42.2l5.7-274c3.8-256.8,1.9-274.1-28.7-260.6c-203.1,84.3-492.5,143.7-707.1,143.7c-249.1,0-333.4-49.8-333.4-199.3c0-84.3,65.2-139.9,187.8-155.2c406.3-49.8,624.7-130.3,780-287.5c199.3-199.3,251-528.9,120.7-783.8c-63.2-122.7-214.6-268.3-348.8-335.4c-195.5-95.8-373.7-122.6-720.6-111.2c-260.6,9.6-605.6,51.7-653.5,82.4c-9.6,5.7-17.2,134.1-17.2,285.5v276l107.3-36.4c293.2-101.6,701.4-124.6,856.6-47.9c92,44.1,141.8,134.1,115,212.7c-28.7,88.1-93.9,120.7-285.5,141.8c-561.5,61.3-854.7,339.2-827.9,778.1c21.1,333.4,264.5,586.4,640.1,666.9C2090.8,1724.4,2347.6,1730.1,2575.6,1701.4z M3930.5,1107.3V490.2l63.2,84.3c88.2,116.9,191.6,295.1,243.4,415.8l42.2,99.7h362.2c199.3,0,362.2-5.7,362.2-13.4c0-78.6-237.6-551.9-356.4-716.7l-84.3-113.1L4676,30.3c116.9-220.4,256.8-538.5,279.8-630.5l13.4-53.7h-381.4h-379.4l-55.6,178.2c-28.7,95.8-88.2,249.1-132.2,339.2l-80.5,162.9l-5.7-339.2l-3.8-341.1h-316.2h-316.2V473v1126.8l293.2,59.4c159.1,32.6,302.8,59.4,316.2,61.3C3924.8,1722.5,3930.5,1588.3,3930.5,1107.3z M7801.6,534.3V-653.8l-310.5,3.8l-312.4,5.7L7173,482.6c-1.9,619-1.9,1124.9,0,1124.9c3.8,1.9,136.1,26.8,293.2,57.5c159.1,28.7,298.9,53.7,312.4,55.6C7795.8,1722.5,7801.6,1473.3,7801.6,534.3z M8702.3,534.3V-653.8l-310.4,3.8l-312.4,5.7l-5.7,1126.8c-1.9,619-1.9,1124.9,0,1124.9c3.8,1.9,136.1,26.8,293.2,57.5c159.1,28.7,298.9,53.7,312.4,55.6C8696.5,1722.5,8702.3,1473.3,8702.3,534.3z M6115.2,852.4V595.6l-101.6-11.5c-124.6-15.3-210.8-67.1-256.8-149.5c-30.7-55.6-34.5-126.5-40.2-574.9l-7.7-513.6h-304.7h-306.6l5.8,619l5.7,617.1l49.8,105.4c69,147.6,147.6,231.9,285.5,304.7c143.7,76.7,306.6,113.1,513.6,115l157.1,1.9V852.4z M6920.1,218.1v-872h-306.6h-306.6v872V1090h306.6h306.6V218.1z M4927-1123.3v-162.9l63.2,38.3c74.8,46,113.1,47.9,185.9,9.6c78.6-40.2,116.9-124.6,116.9-260.6c1.9-141.8-46-239.5-138-289.4c-51.7-30.7-90.1-36.4-199.3-28.7c-218.5,15.3-201.2-21.1-201.2,435c0,438.8-7.7,413.9,120.7,419.7l51.7,1.9V-1123.3z M6843.4-1203.8l1.9-245.3l69,111.2c69,109.2,69,109.2,161,109.2c51.7,0,93.9-5.8,93.9-11.5s-38.3-67.1-84.3-132.2l-84.3-122.6l93.9-147.6c51.7-82.4,92-151.4,88.2-153.3c-1.9-1.9-44.1-7.7-93.9-15.3l-88.1-13.4l-78.6,128.4l-76.7,130.3l-5.7-124.6l-5.8-122.7l-90.1-5.8l-92-5.7v421.6c0,465.7-9.6,435,130.3,440.8l61.3,1.9V-1203.8z M1776.5-1255.6l53.7-44.1l65.2,44.1c36.4,24.9,82.4,46,103.5,46c51.7,0,141.8-49.8,157.1-86.2c5.8-17.2,11.5-143.7,11.5-279.8v-247.2h-86.2H1995v189.7c0,220.4-7.7,251-65.2,251c-74.7,0-88.2-34.5-88.2-245.3v-197.4l-90.1,5.7l-92,5.8l-9.6,210.8c-9.6,195.5-13.4,210.8-49.8,216.5c-65.2,9.6-82.4-36.4-88.2-237.6l-5.7-189.7l-90.1-5.8l-92-5.7v297v298.9h86.2c72.8,0,86.2-5.8,86.2-38.3c0-34.5,3.8-34.5,69,9.6C1653.9-1198.1,1709.4-1196.2,1776.5-1255.6z M2700.2-1259.4c76.7-49.8,118.8-141.8,118.8-256.8c0-203.1-113.1-316.2-302.8-300.9c-157.1,11.5-253,126.5-253,304.7c0,116.9,53.7,208.9,155.2,260.6C2512.4-1203.8,2617.8-1205.8,2700.2-1259.4z M3399.7-1269c26.8-34.5,32.6-80.5,32.6-297v-256.8H3346h-86.2v189.7c0,222.3-7.7,251-67.1,251c-69,0-84.3-38.3-90.1-241.5l-5.7-189.7h-86.2h-86.2l-5.7,293.2l-5.8,291.3h88.2c74.7,0,86.2-5.8,86.2-42.2c0-38.3,1.9-38.3,34.5-9.6C3208-1201.9,3338.4-1196.2,3399.7-1269z M3949.7-1263.2c65.2-47.9,115-151.4,115-237.6v-72.8h-172.5c-182.1,0-203.1-11.5-139.9-80.5c38.3-42.1,134.1-46,224.2-7.7c61.3,24.9,65.2,24.9,76.7-13.4c19.2-74.7,11.5-92-55.6-120.7c-103.5-42.2-260.6-34.5-337.3,17.2c-203.1,134.1-159.1,494.4,69,555.7C3792.5-1205.8,3897.9-1224.9,3949.7-1263.2z M5804.7-1259.4c76.7-49.8,118.8-141.8,118.8-256.8c0-189.7-107.3-306.6-279.8-306.6c-214.6,0-343,251.1-235.7,461.9C5477-1223,5672.5-1173.2,5804.7-1259.4z M6441-1267.1c70.9-49.8,115-149.5,115-258.7c0-168.6-95.8-279.8-253-291.3c-184-13.4-302.8,97.7-302.8,287.5c0,210.8,124.6,333.5,314.3,308.5C6354.7-1224.9,6412.2-1246,6441-1267.1z M7619.5-1255.6c63.2-42.2,107.3-132.2,111.1-228l3.8-80.5l-176.3-5.7c-157.1-3.8-174.4-9.6-164.8-38.3c28.7-82.4,141.8-105.4,264.5-53.7l67.1,28.8v-67.1c0-59.4-7.7-70.9-67.1-95.8c-149.5-61.3-345-19.2-412,92c-55.6,92-53.7,274,5.7,362.2C7335.9-1215.3,7500.7-1177,7619.5-1255.6z M8184.9-1232.6c0-13.4,5.7-55.6,11.5-93.9c11.5-63.2,7.7-70.9-40.2-82.4c-28.7-7.7-72.8-26.8-97.7-44.1c-42.2-26.8-46-40.2-46-201.2v-170.5l-90.1,5.7l-92,5.8l-5.7,293.2l-5.8,291.3h88.2c72.8,0,86.2-5.8,86.2-36.4c0-21.1,9.6-44.1,19.2-49.8c11.5-5.7,19.2-1.9,19.2,9.6c0,19.2,109.2,95.8,139.9,95.8C8179.1-1209.6,8184.9-1221.1,8184.9-1232.6z M8662-1251.8c28.8-9.6,40.2-24.9,32.6-46c-5.8-17.3-11.5-46-11.5-65.2c0-32.6-5.7-32.6-95.8-5.7c-53.7,15.3-109.2,23-124.6,17.3c-59.4-21.1-24.9-63.3,74.7-93.9c151.4-47.9,193.5-88.1,193.5-184c0-118.8-70.9-178.2-214.6-189.7c-67.1-3.8-141.8,3.8-187.8,21.1c-70.9,24.9-76.7,30.7-70.9,92c3.8,36.4,9.6,67.1,11.5,70.9c3.8,1.9,38.3-9.6,76.7-24.9c88.1-38.3,212.7-30.7,212.7,9.6c0,17.3-44.1,42.2-111.1,67.1c-147.6,51.7-185.9,88.2-185.9,178.2c0,84.3,51.7,151.4,130.3,168.7c28.7,5.7,61.3,13.4,70.9,17.2C8489.6-1213.4,8606.5-1230.7,8662-1251.8z M4346.4-1405.1l55.6-176.3l51.7,176.3l53.7,176.3h84.3c47.9,0,86.2-3.8,86.2-7.7c0-5.8-51.7-159.1-115-341.1c-138-392.9-174.4-442.7-320-444.6l-92-1.9l-5.7,70.9c-5.8,67.1-1.9,70.9,55.6,76.7c111.1,11.5,111.1,44.1,0,339.2c-55.6,149.5-93.9,279.8-88.2,289.4c5.7,11.5,49.8,19.2,95.8,19.2h84.3L4346.4-1405.1z"/><path d="M4957.7-1418.5c-24.9-26.8-30.7-63.3-26.8-138c5.7-99.7,7.7-103.5,67.1-109.2c99.7-9.6,151.4,105.4,101.6,233.8C5076.5-1370.6,5005.6-1364.8,4957.7-1418.5z"/><path d="M2481.7-1389.7c-26.8-21.1-36.4-49.8-36.4-122.7c0-105.4,30.7-157.1,97.7-157.1c95.8,0,143.7,189.7,65.2,268.3C2562.2-1355.2,2533.5-1353.3,2481.7-1389.7z"/><path d="M3742.7-1366.7c-13.4-13.4-23-38.3-23-57.5c0-28.7,15.3-34.5,86.2-34.5c47.9,0,86.2,3.8,86.2,7.7c0,5.7-7.7,30.7-19.2,57.5C3853.9-1339.9,3783-1326.5,3742.7-1366.7z"/><path d="M5590.1-1393.6c-57.5-57.5-61.3-185.9-7.7-251.1c30.7-38.3,126.5-30.7,149.5,11.5C5806.6-1493.2,5687.8-1293.9,5590.1-1393.6z"/><path d="M6211-1401.2c-78.6-78.6-30.7-268.3,67.1-268.3c69,0,113.1,76.7,99.7,176.3C6360.5-1370.6,6283.8-1328.4,6211-1401.2z"/><path d="M7399.1-1393.6c-11.5-26.8-19.2-51.7-19.2-57.5c0-3.8,38.3-7.7,86.2-7.7c70.9,0,86.2,5.8,86.2,34.5C7552.5-1336.1,7429.8-1311.2,7399.1-1393.6z"/></g></g>
</svg>