<?xml version="1.0" encoding="utf-8"?>
<!-- Svg Vector Icons : http://www.onlinewebfonts.com/icon -->
<!DOCTYPE svg PUBLIC "-//W3C//DTD SVG 1.1//EN" "http://www.w3.org/Graphics/SVG/1.1/DTD/svg11.dtd">
<svg version="1.1" xmlns="http://www.w3.org/2000/svg" xmlns:xlink="http://www.w3.org/1999/xlink" x="0px" y="0px" viewBox="0 0 1000 1000" enable-background="new 0 0 1000 1000" xml:space="preserve">
<metadata> Svg Vector Icons : http://www.onlinewebfonts.com/icon </metadata>
<g><path d="M936,291.5c-5,3-415.8,248-551.8,317.8c-24,12.3-36,7.2-39.4,7.2c-22.7,0-123.6-216.3-96.8-232.8c26.8-16.5,94.8,80.4,133.9,84.5c32.4,3.4,388.7-172.1,511.1-232.9C803.7,137.8,660.9,74.6,500,74.6c-270.6,0-490,178.5-490,398.7c0,115.9,60.8,220.2,157.9,293.1c13.2,15.7,23.9,31.2,23.5,39.7c-1,21.6-34.2,114.7-17.5,118.5c41.2,9.3,113.3-61.8,140.1-59.7c15.5,1.2,51-0.7,78.1-2.5c34.7,6.4,70.8,9.8,107.9,9.8c270.6,0,490-178.5,490-398.7C990,407.8,970.5,346,936,291.5z"/></g>
</svg>