<?xml version="1.0" encoding="utf-8"?>
<!-- Svg Vector Icons : http://www.onlinewebfonts.com/icon -->
<!DOCTYPE svg PUBLIC "-//W3C//DTD SVG 1.1//EN" "http://www.w3.org/Graphics/SVG/1.1/DTD/svg11.dtd">
<svg version="1.1" xmlns="http://www.w3.org/2000/svg" xmlns:xlink="http://www.w3.org/1999/xlink" x="0px" y="0px" viewBox="0 0 1000 1000" enable-background="new 0 0 1000 1000" xml:space="preserve">
<metadata> Svg Vector Icons : http://www.onlinewebfonts.com/icon </metadata>
<g><path d="M990,835.7c-4.9,63.7-44.1,112.7-93.1,137.2c-29.4,9.8-58.8,14.7-88.2,19.6c-210.7,0-421.4,0-627.2,0C93.3,987.6,10,918.9,10,820.9c0-215.6,0-431.2,0-646.8C10,81.1,78.6,12.5,171.7,12.5c220.5-4.9,436.1-4.9,651.7-4.9C911.6,7.6,990,86,990,174.2c0,156.8,0,313.6,0,470.4c0,9.8,0,19.6,0,34.3c-107.8-34.3-215.6-68.6-318.5-98c29.4-68.6,53.9-137.2,78.4-205.8c-73.5,0-137.2,0-205.8,0c0-19.6,0-39.2,0-53.9c0-4.9,14.7-14.7,24.5-14.7c63.7,0,132.3,0,200.9,0c4.9,0,14.7,0,19.6,0c9.8-39.2,4.9-44.1-29.4-44.1c-68.6,0-137.2,0-210.7,0c0-39.2,0-73.5,0-112.7c-34.3,0-63.7,0-93.1,0c-14.7,0-19.6,4.9-19.6,19.6c0,29.4,0,53.9,0,88.2c-9.8,0-19.6,0-29.4,0c-53.9,0-107.8,0-161.7,0c-39.2,0-39.2,0-34.3,44.1c73.5,0,147,0,220.5,0c4.9,4.9,4.9,4.9,4.9,4.9c4.9,58.8,4.9,58.8-53.9,58.8c-44.1,0-83.3,0-132.3,0c0,14.7,0,24.5,0,39.2c122.5,0,249.9,0,382.2,0c-19.6,49-39.2,88.2-53.9,127.4c-63.7-14.7-122.5-34.3-186.2-44.1c-68.6-4.9-137.2-14.7-205.8,14.7c-73.5,29.4-107.8,98-107.8,166.6c0,63.7,58.8,132.3,122.5,147c142.1,39.2,259.7,4.9,362.6-98c49-49,49-49,112.7-19.6C779.3,742.6,882.2,786.7,990,835.7z"/><path d="M519.6,624.9c-53.9,68.6-112.7,117.6-196,137.2c-58.8,9.8-122.5,9.8-166.6-39.2c-49-49-39.2-117.6,24.5-147c24.5-14.7,53.9-19.6,83.3-19.6C353,551.4,436.3,575.9,519.6,624.9z"/></g>
</svg>