<?xml version="1.0" encoding="utf-8"?>
<!-- Svg Vector Icons : http://www.onlinewebfonts.com/icon -->
<!DOCTYPE svg PUBLIC "-//W3C//DTD SVG 1.1//EN" "http://www.w3.org/Graphics/SVG/1.1/DTD/svg11.dtd">
<svg version="1.1" xmlns="http://www.w3.org/2000/svg" xmlns:xlink="http://www.w3.org/1999/xlink" x="0px" y="0px" viewBox="0 0 1000 1000" enable-background="new 0 0 1000 1000" xml:space="preserve">
<metadata> Svg Vector Icons : http://www.onlinewebfonts.com/icon </metadata>
<g><g transform="translate(0.000000,511.000000) scale(0.100000,-0.100000)"><path d="M2531,2915.8C727.4,1563.1,119.6,1095,107.3,1048.5C87.7,962.7,127,867.1,198,830.4c90.7-46.6,9515.6-46.6,9606.3,0c71.1,36.8,110.3,132.3,90.7,218.1c-22.1,85.8-4773.7,3653.8-4881.5,3666.1C4949.7,4721.9,4648.3,4503.8,2531,2915.8z M7052.3,2741.8l2048.7-1539l-2048.7-7.3c-1127.3-2.5-2975-2.5-4104.7,0l-2051.1,7.3l2046.2,1536.5c1124.8,845.4,2048.7,1536.5,2053.6,1539C4998.7,4278.3,5925,3587.3,7052.3,2741.8z"/><path d="M884.2-1358v-1960.5h196h196V-1358V602.5h-196h-196V-1358z"/><path d="M2844.6-1358v-1960.5h196h196V-1358V602.5h-196h-196V-1358z"/><path d="M4805.1-1358v-1960.5h196h196V-1358V602.5h-196h-196V-1358z"/><path d="M6765.6-1358v-1960.5h196h196V-1358V602.5h-196h-196V-1358z"/><path d="M8726-1358v-1960.5h196.1h196V-1358V602.5h-196H8726V-1358z"/><path d="M749.4-3575.8c-39.2-36.8-61.3-88.2-61.3-134.8c0-46.6,22.1-98,61.3-134.8l58.8-61.3h4178.2c2296.2,0,4195.4,7.4,4217.5,14.7c61.3,24.5,115.2,151.9,98,232.8c-34.3,154.4,289.2,144.6-4308.1,144.6H808.2L749.4-3575.8z"/><path d="M161.3-4163.9c-39.2-36.8-61.3-88.2-61.3-134.8s22.1-98,61.3-134.8l58.8-61.3h4781.1h4781.1l61.3,66.2c51.5,56.4,61.3,85.8,49,154.4c-7.3,46.6-36.8,105.4-66.2,129.9c-49,39.2-316.1,41.7-4830.1,41.7H220.1L161.3-4163.9z"/></g></g>
</svg>