<?xml version="1.0" encoding="utf-8"?>
<!-- Svg Vector Icons : http://www.onlinewebfonts.com/icon -->
<!DOCTYPE svg PUBLIC "-//W3C//DTD SVG 1.1//EN" "http://www.w3.org/Graphics/SVG/1.1/DTD/svg11.dtd">
<svg version="1.1" xmlns="http://www.w3.org/2000/svg" xmlns:xlink="http://www.w3.org/1999/xlink" x="0px" y="0px" viewBox="0 0 1000 1000" enable-background="new 0 0 1000 1000" xml:space="preserve">
<metadata> Svg Vector Icons : http://www.onlinewebfonts.com/icon </metadata>
<g><path d="M958.3,846.9H41.7c-17.5,0-31.7-14.1-31.7-31.5V657.7h980v157.7C990,832.8,975.8,846.9,958.3,846.9z M181.5,625.3c0,0-22.7-145.3-34.1-213c-0.5-3.1-51.9-17.7-51.9-17.7l-5-21.7l112.8,1l28.8,166.2L316.8,374h39.3L231.2,625.3L181.5,625.3L181.5,625.3z M315.2,625.3L394.3,374h58.4l-79,251.3H315.2z M507.2,624.6c-63.2,0-82.8-28.8-82.8-28.8l22.7-31.7c0,0,16.4,18.1,63.8,26.7c25.1,0,47.9-21.8,47.9-21.8s23.2-31.5-72.1-95.2c3.6,6.9-40.9-42.6,15.7-80.4c13.8-13.8,60.8-20.7,87-20.7c26.6,0,74.9,16.6,74.9,16.6L627,434.8c0,0-12.6-15.4-33.6-15.4c-49.5,0-64.5,5.4-64.5,25.9c1.1,21.9,50.6,32.4,68.1,51.3c10.6,11.3,21.9,28.8,21.9,51.4c0,21.9-18.8,51.5-34.6,67C568.4,630.6,535.5,624.6,507.2,624.6z M675.4,625.3h-58.8L768.5,375l63.7-2l-0.8,251.3h-47.2l0.3-46h-81.9L675.4,625.3z M783.4,532l2.7-111.8L718.8,532H783.4z M10,184.6c0-17.4,14.2-31.5,31.7-31.5h916.7c17.5,0,31.7,14.1,31.7,31.5v157.7H10V184.6z"/></g>
</svg>