<?xml version="1.0" standalone="no"?><!DOCTYPE svg PUBLIC "-//W3C//DTD SVG 1.1//EN" "http://www.w3.org/Graphics/SVG/1.1/DTD/svg11.dtd"><svg width="200" height="200" viewBox="0 0 200 200" version="1.1" xmlns="http://www.w3.org/2000/svg" xmlns:xlink="http://www.w3.org/1999/xlink"><defs><style type="text/css"><![CDATA[
@font-face { font-family: ifont; src: url("//at.alicdn.com/t/font_1442373896_4754455.eot?#iefix") format("embedded-opentype"), url("//at.alicdn.com/t/font_1442373896_4754455.woff") format("woff"), url("//at.alicdn.com/t/font_1442373896_4754455.ttf") format("truetype"), url("//at.alicdn.com/t/font_1442373896_4754455.svg#ifont") format("svg"); }

]]></style></defs><g class="transform-group"><g transform="scale(0.1953125, 0.1953125)"><path d="M128 320l0 640c0 35.2 28.8 64 64 64l576 0c35.2 0 64-28.8 64-64L832 320 128 320zM320 896 256 896 256 448l64 0L320 896zM448 896 384 896 384 448l64 0L448 896zM576 896 512 896 512 448l64 0L576 896zM704 896l-64 0L640 448l64 0L704 896zM848 128 640 128 640 48C640 21.632 618.368 0 592 0l-224 0C341.632 0 320 21.632 320 48L320 128 112 128C85.568 128 64 149.568 64 176L64 256l832 0L896 176C896 149.568 874.368 128 848 128zM576 128 384 128 384 64.832l192 0L576 128z" fill="#272636"></path></g></g></svg>